<svg width="231" height="49" viewBox="0 0 231 49" fill="none" xmlns="http://www.w3.org/2000/svg">
<path d="M63.525 16.35H56.525V12.5H74.585V16.35H67.585V37H63.525V16.35ZM89.1062 19.64V37H85.5012L85.3262 35.67C84.8128 36.1833 84.1828 36.5917 83.4362 36.895C82.7128 37.1983 81.9428 37.35 81.1262 37.35C78.7228 37.35 76.9495 36.65 75.8062 35.25C74.6628 33.85 74.0912 31.8433 74.0912 29.23V19.64H78.0112V28.915C78.0112 30.6417 78.2912 31.925 78.8512 32.765C79.4345 33.605 80.3678 34.025 81.6512 34.025C83.1678 34.025 84.3462 33.4767 85.1862 32.38V19.64H89.1062ZM94.3559 22.79H91.6609L92.0809 19.64H94.3559V15.79C94.3559 14.2267 94.7992 13.0017 95.6859 12.115C96.5726 11.205 97.8326 10.75 99.4659 10.75C100.516 10.75 101.449 10.8667 102.266 11.1L101.846 14.32C101.356 14.1567 100.854 14.075 100.341 14.075C98.9409 14.075 98.2409 14.8333 98.2409 16.35V19.64H102.371V22.79H98.2409V37H94.3559V22.79ZM108.741 37.35C107.248 37.35 106.011 36.8833 105.031 35.95C104.075 34.9933 103.596 33.745 103.596 32.205C103.596 30.6883 104.133 29.475 105.206 28.565C106.28 27.655 107.563 27.0133 109.056 26.64C110.573 26.2433 112.078 26.0217 113.571 25.975C113.548 24.7617 113.28 23.9217 112.766 23.455C112.253 22.965 111.401 22.72 110.211 22.72C109.465 22.72 108.718 22.8367 107.971 23.07C107.248 23.28 106.431 23.63 105.521 24.12L105.101 20.935C107.061 19.8617 109.126 19.325 111.296 19.325C113.396 19.325 114.96 19.9083 115.986 21.075C117.013 22.2183 117.526 24.12 117.526 26.78V31.085C117.526 31.995 117.561 32.66 117.631 33.08C117.725 33.4767 117.876 33.7567 118.086 33.92C118.32 34.0833 118.693 34.165 119.206 34.165H119.696L119.241 37.35H118.156C117.036 37.35 116.161 37.1633 115.531 36.79C114.925 36.4167 114.435 35.8683 114.061 35.145C113.455 35.8217 112.685 36.3583 111.751 36.755C110.818 37.1517 109.815 37.35 108.741 37.35ZM110.141 34.305C110.725 34.305 111.331 34.165 111.961 33.885C112.615 33.5817 113.163 33.1733 113.606 32.66V28.635C111.81 28.705 110.363 29.02 109.266 29.58C108.193 30.14 107.656 30.9567 107.656 32.03C107.656 33.5467 108.485 34.305 110.141 34.305ZM122.084 19.64H125.619L125.829 21.845C126.459 21.075 127.182 20.4567 127.999 19.99C128.815 19.5233 129.667 19.29 130.554 19.29C130.787 19.29 131.044 19.3133 131.324 19.36L131.009 23.35C130.635 23.2333 130.192 23.175 129.679 23.175C128.909 23.175 128.185 23.3617 127.509 23.735C126.832 24.085 126.354 24.505 126.074 24.995V37H122.084V19.64ZM153.24 19.325C155.527 19.325 157.23 20.0017 158.35 21.355C159.47 22.685 160.03 24.61 160.03 27.13V37H156.11V27.34C156.11 25.7067 155.83 24.5167 155.27 23.77C154.734 23 153.835 22.615 152.575 22.615C151.199 22.615 150.207 23.035 149.6 23.875C148.994 24.715 148.69 25.8233 148.69 27.2V37H144.805V27.585C144.805 25.8117 144.502 24.54 143.895 23.77C143.312 23 142.414 22.615 141.2 22.615C139.544 22.615 138.272 23.1983 137.385 24.365V37H133.465V19.64H136.72L136.965 21.18C138.505 19.9433 140.244 19.325 142.18 19.325C144.56 19.325 146.299 20.2467 147.395 22.09C148.002 21.2033 148.795 20.5267 149.775 20.06C150.779 19.57 151.934 19.325 153.24 19.325Z" fill="#565AC6"/>
<path d="M167.838 37.35C166.345 37.35 165.108 36.8833 164.128 35.95C163.171 34.9933 162.693 33.745 162.693 32.205C162.693 30.6883 163.23 29.475 164.303 28.565C165.376 27.655 166.66 27.0133 168.153 26.64C169.67 26.2433 171.175 26.0217 172.668 25.975C172.645 24.7617 172.376 23.9217 171.863 23.455C171.35 22.965 170.498 22.72 169.308 22.72C168.561 22.72 167.815 22.8367 167.068 23.07C166.345 23.28 165.528 23.63 164.618 24.12L164.198 20.935C166.158 19.8617 168.223 19.325 170.393 19.325C172.493 19.325 174.056 19.9083 175.083 21.075C176.11 22.2183 176.623 24.12 176.623 26.78V31.085C176.623 31.995 176.658 32.66 176.728 33.08C176.821 33.4767 176.973 33.7567 177.183 33.92C177.416 34.0833 177.79 34.165 178.303 34.165H178.793L178.338 37.35H177.253C176.133 37.35 175.258 37.1633 174.628 36.79C174.021 36.4167 173.531 35.8683 173.158 35.145C172.551 35.8217 171.781 36.3583 170.848 36.755C169.915 37.1517 168.911 37.35 167.838 37.35ZM169.238 34.305C169.821 34.305 170.428 34.165 171.058 33.885C171.711 33.5817 172.26 33.1733 172.703 32.66V28.635C170.906 28.705 169.46 29.02 168.363 29.58C167.29 30.14 166.753 30.9567 166.753 32.03C166.753 33.5467 167.581 34.305 169.238 34.305ZM190.175 19.325C191.785 19.325 193.174 19.7217 194.34 20.515C195.507 21.3083 196.394 22.3933 197 23.77C197.607 25.1233 197.91 26.64 197.91 28.32C197.91 30 197.607 31.5283 197 32.905C196.417 34.2817 195.542 35.3667 194.375 36.16C193.209 36.9533 191.809 37.35 190.175 37.35C189.055 37.35 188.087 37.21 187.27 36.93C186.477 36.65 185.754 36.2067 185.1 35.6V45.47H181.18V19.64H184.295L184.715 21.495C185.462 20.795 186.267 20.2583 187.13 19.885C188.017 19.5117 189.032 19.325 190.175 19.325ZM189.51 34.06C190.887 34.06 191.96 33.5467 192.73 32.52C193.5 31.4933 193.885 30.0933 193.885 28.32C193.885 26.57 193.5 25.1817 192.73 24.155C191.96 23.1283 190.887 22.615 189.51 22.615C188.04 22.615 186.897 23.1167 186.08 24.12C185.287 25.1233 184.89 26.5233 184.89 28.32C184.89 30.14 185.287 31.5517 186.08 32.555C186.897 33.5583 188.04 34.06 189.51 34.06ZM210.034 19.325C211.644 19.325 213.032 19.7217 214.199 20.515C215.365 21.3083 216.252 22.3933 216.859 23.77C217.465 25.1233 217.769 26.64 217.769 28.32C217.769 30 217.465 31.5283 216.859 32.905C216.275 34.2817 215.4 35.3667 214.234 36.16C213.067 36.9533 211.667 37.35 210.034 37.35C208.914 37.35 207.945 37.21 207.129 36.93C206.335 36.65 205.612 36.2067 204.959 35.6V45.47H201.039V19.64H204.154L204.574 21.495C205.32 20.795 206.125 20.2583 206.989 19.885C207.875 19.5117 208.89 19.325 210.034 19.325ZM209.369 34.06C210.745 34.06 211.819 33.5467 212.589 32.52C213.359 31.4933 213.744 30.0933 213.744 28.32C213.744 26.57 213.359 25.1817 212.589 24.155C211.819 23.1283 210.745 22.615 209.369 22.615C207.899 22.615 206.755 23.1167 205.939 24.12C205.145 25.1233 204.749 26.5233 204.749 28.32C204.749 30.14 205.145 31.5517 205.939 32.555C206.755 33.5583 207.899 34.06 209.369 34.06Z" fill="#B8D3FC"/>
<path opacity="0.9" d="M24.4283 40.7139C19.9312 45.211 12.6399 45.211 8.14277 40.7139C3.64564 36.2167 3.64564 28.9254 8.14277 24.4283L24.4283 8.14278C28.9254 3.64565 36.2167 3.64566 40.7138 8.14278C45.211 12.6399 45.211 19.9312 40.7138 24.4283L24.4283 40.7139Z" fill="#B8D3FC"/>
<path d="M22.7998 39.0853C19.2021 42.683 13.369 42.683 9.77132 39.0853C6.17362 35.4876 6.17362 29.6545 9.77132 26.0568L17.9141 17.9141L30.9425 30.9425L22.7998 39.0853Z" fill="#565AC6"/>
</svg>
